<?xml version="1.0" encoding="UTF-8"?>
<!DOCTYPE svg PUBLIC "-//W3C//DTD SVG 1.1//EN" "http://www.w3.org/Graphics/SVG/1.1/DTD/svg11.dtd">
<!-- Creator: CorelDRAW 2020 (64-Bit) -->
<svg xmlns="http://www.w3.org/2000/svg" xml:space="preserve" width="119.425mm" height="34.0929mm" version="1.1" style="shape-rendering:geometricPrecision; text-rendering:geometricPrecision; image-rendering:optimizeQuality; fill-rule:evenodd; clip-rule:evenodd"
viewBox="0 0 12770.57 3645.68"
 xmlns:xlink="http://www.w3.org/1999/xlink"
 xmlns:xodm="http://www.corel.com/coreldraw/odm/2003">
 <defs>
  <style type="text/css">
   <![CDATA[
    .fil1 {fill:black}
    .fil0 {fill:#C67036}
   ]]>
  </style>
 </defs>
 <g id="Capa_x0020_1">
  <metadata id="CorelCorpID_0Corel-Layer"/>
  <g id="_2086546747728">
   <path class="fil0" d="M11669.73 1509.13l-2468.05 -2.69c10.44,394.42 52.18,782.43 218.78,1087.57 233.36,427.37 203.52,319.29 999.77,319.29 217.58,0 435.5,1.89 652.89,1.79 160.46,-0.07 155.6,9.25 231.7,-95.73 304.25,-419.67 350.59,-720.71 364.91,-1310.23z"/>
   <path class="fil1" d="M9085.06 3112.44l2702.7 -1.79c-152.64,383.25 -1032.97,323.71 -1339.26,323.71 -460.87,0 -1220.41,44.7 -1363.45,-321.92zm3121.16 -1468.72c479.49,-138.04 488.76,808.85 1.33,947.43 -486.37,138.29 -518.24,-798.61 -1.33,-947.43zm-1133.1 1271.37c-217.4,0.11 -435.32,-1.79 -652.89,-1.79 -796.25,0 -766.4,108.08 -999.77,-319.29 -166.59,-305.14 -208.34,-693.14 -218.78,-1087.57l2468.05 2.69c-14.32,589.51 -60.66,890.55 -364.91,1310.23 -76.1,104.98 -71.24,95.65 -231.7,95.73zm487.13 612c201.87,-73.3 650.49,-410.49 555.34,-569.21 -63.49,-76.86 -449.6,-42.3 -614.96,-48.18l187.08 -355.95 75.09 75.4c400.67,422.22 886.83,11.23 983.84,-400.22 72.82,-308.88 -27.79,-590.92 -203.62,-720.2 -259.16,-190.57 -496.16,-22.52 -677.15,93.04 5.76,-359.62 -32.52,-295.78 -370.58,-293.98l-1923.74 0.12c-555.69,-0.01 -640.74,-149.44 -537.11,682.27 22.74,182.58 65.94,357.48 130.3,521.58 56.77,144.73 171.8,305.94 199.04,399.56 -406.78,9.17 -910.94,-125.02 -388.94,412.27 71.52,73.62 230.1,176.59 371.21,222.81 409.61,134.16 1784.34,136.78 2214.2,-19.3z"/>
   <path class="fil1" d="M5291.66 1453.68l282.71 -6.37 0.38 -736.58c7.62,5.22 15.83,5.81 18.27,16.24l471.52 723.82 291.53 2.89 0 -1244.52 -282.78 7.31 -0.44 734.2c-58.74,-37.74 -212.68,-294.01 -252.02,-357.54 -82.71,-133.55 -173.8,-246.81 -237.77,-381.64l-291.63 -2.33 0.2 1244.52z"/>
   <path class="fil1" d="M2694.03 2602.23c455.61,-155.53 568.21,591.72 214.49,704.66 -471.06,150.41 -573.08,-582.25 -214.49,-704.66zm712.33 520.63c194.26,-868.59 -990.01,-1115.25 -1206.35,-356.43 -248.5,871.66 1027.56,1155.91 1206.35,356.43z"/>
   <path class="fil1" d="M8106.49 485.3c455.92,-191.22 575.35,587.81 231.54,698.02 -467.26,149.79 -601.22,-542.98 -231.54,-698.02zm-16.99 -278.12c-812.48,188.96 -567.53,1433.68 273.41,1252.45 730.61,-157.46 563.03,-1446.99 -273.41,-1252.45z"/>
   <path class="fil1" d="M6818.96 462.45c243.85,10.54 397.03,117.39 396.48,368.93 -0.57,253.09 -154.01,357.03 -396.48,369.57l0 -738.51zm-282.56 991.23l291.09 0c936.34,0 933.69,-1244.52 0,-1244.52l-290.86 0 -0.24 1244.52z"/>
   <path class="fil1" d="M3834.91 2563.16c151.01,-10.3 269.68,10.47 267.07,161.59 -2.79,161.2 -132.11,164.51 -267.07,149.27l0 -310.86zm331.56 503.12c350.44,-265.71 486.34,-825.1 -614.11,-729.09l-0.05 1235.44 282.08 2.75 4.63 -472.83c138.81,147.72 235.04,305.39 365.84,470.38l358.38 -1.32c-89.32,-165.16 -309.02,-335.68 -396.77,-505.33z"/>
   <path class="fil1" d="M6914.8 2812.41c-68.45,65.91 -318.47,51.21 -417.32,11.86l-2.3 -495.78 -269.98 2.37 0.03 1246.08 281.09 -10.01 13.63 -491.35 387.52 1.73 2.33 498.46 283.11 -2.62 0.01 -1241.3 -283.59 -0.99 5.46 481.54z"/>
   <polygon class="fil1" points="8154.04,1926.22 8154.04,1830.03 733.67,1821.68 733.67,1934.48 "/>
   <path class="fil1" d="M1705 608.21l123.25 348.72 -269.37 -5.06 146.11 -343.66zm-616.48 759.27l-16.18 73.76 301.24 14.68 86.98 -248.4 471.88 -3.06 92.89 244.2 298.95 3.5 -495.46 -1240.95 -268.47 -2.05 -471.84 1158.32z"/>
   <path class="fil1" d="M5552.35 2729.9l123.25 348.72 -269.37 -5.05 146.11 -343.67zm-243.96 597.46l470.49 -0.48 90.33 247.81 305.56 -5.68 -493.51 -1238.14 -268.93 1.82 -495.52 1237.55 299.17 3.25 92.41 -246.13z"/>
   <path class="fil1" d="M4618.8 608.21l123.25 348.72 -269.36 -5.06 146.1 -343.66zm-635.85 833.61l304.43 14.14 86.98 -248.43c530.9,-16.54 479.75,-35.67 561.29,242.49l302.47 -0.29 -495.5 -1238.52 -269.34 -2.05 -490.33 1232.66z"/>
   <path class="fil0" d="M9085.06 3112.44c143.03,366.62 902.57,321.92 1363.45,321.92 306.29,0 1186.62,59.54 1339.26,-323.71l-2702.7 1.79z"/>
   <path class="fil1" d="M1088.52 1367.48l-124.96 -242.24c-273.28,158.01 -650.98,32.56 -650.62,-293.78 0.36,-326.51 377.06,-451.88 645.36,-296.78l128.19 -235.11c-843.95,-478.83 -1532.68,686.97 -730.39,1091.77 278.65,140.6 479.64,86.16 732.42,-23.86z"/>
   <path class="fil1" d="M1507.88 2556.95c232.48,2.43 320.46,5.87 282.11,259.92 -93.46,66.45 -121.38,69.41 -278.71,71.1l-3.4 -331.02zm0 556.48c355.08,0 685.46,-91.49 581.98,-515.73 -81.24,-333.02 -529.1,-266.84 -864.87,-266.84l0 1244.71 282.89 -1.3 0 -460.83z"/>
   <polygon class="fil1" points="3233.52,1453.68 3945.51,1453.68 3939.97,1205.51 3517.64,1205.61 3523.83,953.88 3926.95,954.1 3926.99,705.74 3528.24,705.74 3516.42,457.23 3938.32,457.23 3945.41,209.16 3234.74,209.16 "/>
   <path class="fil1" d="M3060.32 732.89c-131.79,-6.85 -286.8,19.47 -403.93,-30.36 -11.76,-85.63 -24.59,-164.58 17.19,-241.12l416.38 -4.59 8.55 -247.63 -726.6 -0.03 5.95 1244.52 282.65 -3.63 3.27 -496.03 400.01 -0.42 -3.46 -220.71z"/>
   <polygon class="fil1" points="7371.35,3572.62 7653.97,3575.37 7654.28,2330.86 7478.06,2329.59 7371.41,2337.18 "/>
   <path class="fil1" d="M10125 0.03c-68.16,162.45 95.11,134.79 107.34,323.45 9.74,150.38 -108.16,223.8 -176.5,313.42 -236.2,309.69 49.94,654.7 139.4,565.23 74.85,-74.86 -97.02,-147.78 -96.87,-314.2 0.22,-240.14 369.32,-332.1 251.97,-663.61 -35.95,-101.53 -123.56,-226.54 -225.33,-224.29z"/>
   <path class="fil1" d="M10515.54 1237.36c80.48,-111.52 -69.04,-161.63 -87.7,-300.26 -33.67,-250.26 337.77,-333.58 262.86,-659.34 -21.09,-91.7 -127.01,-271.79 -213.53,-258.7 -148.57,22.49 58.34,174.19 82.68,282.64 59.07,263.23 -339.95,338.84 -255.76,695.38 24.76,104.85 113.3,241.63 211.44,240.29z"/>
   <path class="fil1" d="M10810.07 29.57c-44.45,121.32 116.15,164.52 121.13,322.14 4.27,135.19 -116.81,217.88 -179.72,301.83 -247.64,330.49 110.58,710.81 148.15,544.05 17.75,-78.83 30.14,-3.03 -42.71,-120.38 -146.94,-236.69 -36.29,-273.88 118.42,-483.28 193.68,-262.14 2.83,-619.89 -165.27,-564.36z"/>
  </g>
 </g>
</svg>
