<?xml version="1.0" encoding="UTF-8"?>
<!DOCTYPE svg PUBLIC "-//W3C//DTD SVG 1.1//EN" "http://www.w3.org/Graphics/SVG/1.1/DTD/svg11.dtd">
<!-- Creator: CorelDRAW 2020 (64-Bit) -->
<svg xmlns="http://www.w3.org/2000/svg" xml:space="preserve" width="226.251mm" height="83.6403mm" version="1.1" style="shape-rendering:geometricPrecision; text-rendering:geometricPrecision; image-rendering:optimizeQuality; fill-rule:evenodd; clip-rule:evenodd"
viewBox="0 0 21547.57 7965.67"
 xmlns:xlink="http://www.w3.org/1999/xlink"
 xmlns:xodm="http://www.corel.com/coreldraw/odm/2003">
 <defs>
  <style type="text/css">
   <![CDATA[
    .str0 {stroke:white;stroke-width:67.2;stroke-miterlimit:22.9256}
    .fil0 {fill:black}
    .fil1 {fill:blue}
    .fil3 {fill:#9B9B9B}
    .fil2 {fill:#FFCC00}
   ]]>
  </style>
     <clipPath id="id0">
      <path d="M1511.05 1973.35l4065.51 0 0 4451.54 -4065.51 0 0 -4451.54z"/>
     </clipPath>
 </defs>
 <g id="Capa_x0020_1">
  <metadata id="CorelCorpID_0Corel-Layer"/>
  <g id="_2379475174048">
   <path class="fil0 str0" d="M17220.4 3139.25c553.81,-69.69 997.87,354.45 1050.6,836.79 60.31,551.67 -348.57,988.42 -826.5,1046.23 -560.02,67.73 -1006.98,-349.07 -1058.61,-837.51 -59.09,-558.92 346.23,-984.07 834.51,-1045.51zm1072.49 2379.2c49.64,217.79 321.47,375.2 566.1,235.36 234.67,-134.16 192.8,-379.67 192.8,-694.95 0,-530.88 59.88,-1208.02 -136.4,-1654.7 -179.61,-408.73 -483.77,-723.63 -893.15,-903.09 -905.68,-396.99 -1982.22,55.83 -2313.5,983.12 -448.34,1254.94 611.34,2536.94 1934.15,2293.1 123.93,-22.85 237.65,-56.5 348.54,-103.26 109.81,-46.3 270.62,-144.31 301.46,-155.6z"/>
   <g>
    <g style="clip-path:url(#id0)">
     <image x="1511.05" y="1973.35" width="4065.51" height="4451.54" xlink:href="logo_Images\logo_ImgID1.png"/>
    </g>
   </g>
   <path class="fil0 str0" d="M2858.81 4408.84c-86.45,-110.09 -71.87,-425.67 -35.39,-567.8 144.31,-562.21 776.51,-853.2 1249.99,-646.24l-1214.6 1214.05zm566.98 570.96c-7.43,-3.95 -48.72,-25.19 -10.76,-28.01 178.76,-164.69 350.9,-351.67 526.04,-525.63 181.05,-179.83 351.79,-353.02 532.87,-533.19l531.23 -534.9c83.97,-118.87 92.57,-287.77 17.6,-416.82 -58.79,-101.19 -182.26,-190.5 -272.9,-260.18 -851.74,-654.62 -2340.35,-298.54 -2673.2,946.33 -330.05,1234.46 719.55,2356.97 1948.35,2155.31 398.71,-65.43 1338.4,-488.15 964.02,-1000.05 -111.28,-152.16 -357.39,-211.11 -562.38,-44.91 -53.26,43.19 -78.89,75.52 -144.82,121.91 -104.17,73.29 -229.46,128.9 -377.13,155.45 -214.63,38.58 -295.36,-5.26 -478.93,-35.32z"/>
   <path class="fil0 str0" d="M9597.06 3138.89c549.79,-67.41 989.14,353.82 1044.16,832.82 63.72,554.81 -351.24,996.75 -831.3,1051.35 -560.81,63.79 -996.78,-350.9 -1052.37,-833.58 -64.87,-563.2 350.48,-990.64 839.51,-1050.59zm-84.17 -772.14c-888.56,104.83 -1642.37,886.17 -1526.38,1911.96 99.81,882.74 899.44,1630.4 1913.76,1515.46 872.59,-98.87 1628.85,-900.67 1513.17,-1907 -29.22,-254.13 -102.96,-451.56 -209.67,-649.53 -316.71,-587.56 -1009.4,-951.29 -1690.88,-870.9z"/>
   <path class="fil0 str0" d="M6767.3 2367.12c-1187.29,135.11 -1836.32,1348.61 -1397.37,2393.74 187.67,446.85 565.68,798.86 1063.29,964.83 425.4,141.89 1488.39,125.1 1427.84,-456.33 -15.84,-152 -103.28,-246.51 -199.74,-297.09 -170.81,-89.59 -258.81,-40.83 -416.43,11.74 -295.33,98.5 -609.08,27.54 -820.87,-118.28 -768.89,-529.41 -395.62,-1689.38 478.38,-1731.25 181.77,-8.71 282.62,22.44 434.13,77.43 465.79,169.05 753.38,-503.06 298.5,-716.07 -240.86,-112.78 -570.81,-162.51 -867.74,-128.71z"/>
   <path class="fil1 str0" d="M20242.43 2644.13c0,0 0,0 0,0z"/>
   <path class="fil1 str0" d="M807.81 2641.49c0,0 0,0 0,0z"/>
   <path class="fil2" d="M12084.06 5521.65c108.22,437.2 742.34,347.62 757.67,-49.84l2.51 -3792.08c173.17,-13 586.55,-2.15 800.74,-2.15 184.37,0 323.82,-13.03 484.33,68.49 422.7,214.67 530.82,1029.98 22.81,1143.29 -389.98,86.99 -1009.63,-122.15 -1024.82,443.68 -16.34,608.71 707.25,286.25 1063.51,507.86 481.65,299.61 355.24,1050.26 -212.97,1169.16 -190.92,39.95 -441.88,-29.96 -606.94,52.69 -363.29,181.91 -242.71,723.81 158.2,736.33 603.53,18.83 1044.02,-53.53 1436.76,-543.21 391.51,-488.15 400.27,-1202.01 18.52,-1721.68 -64.46,-87.74 -118.43,-131.23 -155.42,-178.7 10.45,-21.35 155.91,-172.8 241.04,-313.26 400.65,-661.2 168.99,-1542.62 -495.21,-1937.55 -306.24,-182.09 -539.44,-199.94 -941.39,-199.94 -374.64,0.01 -749.37,0.75 -1124.01,-0.11 -503.61,-1.18 -438.67,428.29 -438.67,701.15 0,757.05 0,1514.11 0,2271.16l13.35 1644.73z"/>
   <path class="fil2" d="M5261.15 9.14c-1058.61,80.45 -2320.7,607.4 -2961.38,1505.62 -108.71,152.4 -8.39,342.18 158.05,351.86 122.69,7.14 254.88,-122.35 385.1,-214.19 1422.82,-1003.41 3284.46,-1184.01 4850.22,-338.64 281.42,151.94 492.09,291.45 729.21,464.36 56.13,40.93 108.58,91.93 199.14,92.29 93.1,0.36 158.05,-51.52 192.04,-111.19 43.29,-75.99 34.17,-164.31 -12.1,-232.66 -715.84,-1057.14 -2384.67,-1605.28 -3540.26,-1517.45z"/>
   <path class="fil2" d="M14337.29 7319.15c1669.09,1088.8 4132.64,778.08 5430.77,-748.78 31.59,-37.15 105.76,-119.12 124.09,-165.62 69.81,-177.05 -140.76,-368.95 -310.76,-275.97 -55.17,30.18 -120.37,87.82 -174.41,126.85 -973.13,702.92 -2078.75,1037.55 -3283.9,911.07 -882.51,-92.63 -1548.27,-407.92 -2202.54,-844.83 -131.69,-87.95 -265.9,-223.04 -381.24,-222.71 -178.65,0.5 -280.68,195.23 -179.82,343.33 188.92,277.36 772.06,742.46 977.8,876.67z"/>
   <path class="fil3 str0" d="M3425.79 4979.8l-10.76 -28.01c-37.96,2.82 3.33,24.06 10.76,28.01z"/>
   <path class="fil0 str0" d="M33.6 5476c0,-910.5 0,-1820.99 0,-2731.49 2.22,-462 666.38,-482.12 760.98,-100.79 299.41,-171.37 622.84,-290.65 1002.9,-287.26 499.17,24.79 450.09,816.86 -75.6,776.11 -446.06,-11.77 -918.74,419.56 -919.62,903.99l-2.64 1439.44c-25.29,466.22 -749.13,414.04 -766.02,0z"/>
   <path class="fil0 str0" d="M19402.15 5476c0,-910.5 0,-1820.99 0,-2731.49 2.22,-462 666.38,-482.12 760.98,-100.79 299.41,-171.37 622.84,-290.65 1002.9,-287.26 499.17,24.79 450.09,816.86 -75.6,776.11 -446.06,-11.77 -918.74,419.56 -919.62,903.99l-2.64 1439.44c-25.29,466.22 -749.13,414.04 -766.02,0z"/>
  </g>
 </g>
</svg>
